<?xml version="1.0" standalone="no"?>
<!DOCTYPE svg PUBLIC "-//W3C//DTD SVG 20010904//EN"
 "http://www.w3.org/TR/2001/REC-SVG-20010904/DTD/svg10.dtd">
<svg version="1.0" xmlns="http://www.w3.org/2000/svg"
 width="200.000000pt" height="200.000000pt" viewBox="0 0 200.000000 200.000000"
 preserveAspectRatio="xMidYMid meet">

<g transform="translate(0.000000,200.000000) scale(0.100000,-0.100000)"
fill="#000000" stroke="none">
<path d="M0 1000 l0 -1000 1000 0 1000 0 0 1000 0 1000 -1000 0 -1000 0 0
-1000z m1670 330 l0 -330 -165 0 -165 0 0 165 0 165 -335 0 -335 0 0 -165 0
-165 165 0 165 0 0 -335 0 -335 -330 0 -330 0 0 500 0 500 165 0 165 0 0 165
0 165 500 0 500 0 0 -330z m0 -835 l0 -165 -165 0 -165 0 0 165 0 165 165 0
165 0 0 -165z"/>
</g>
</svg>
